<?xml version="1.0" encoding="utf-8"?>
<!-- Generator: Adobe Illustrator 21.0.2, SVG Export Plug-In . SVG Version: 6.00 Build 0)  -->
<svg version="1.1" id="Layer_1" xmlns="http://www.w3.org/2000/svg" xmlns:xlink="http://www.w3.org/1999/xlink" x="0px" y="0px"
	 viewBox="0 0 80.5 49.9" style="enable-background:new 0 0 80.5 49.9;" xml:space="preserve">
<style type="text/css">
	.st0{fill:#D9AD4E;}
</style>
<g>
	<polygon class="st0" points="54,1.5 55.9,1.5 79.1,1.5 79.1,46 64.5,46 64.5,47.4 80.5,47.4 80.5,0 55.9,0 54,0 0,0 0,47.4 
		16,47.4 16,46 1.4,46 1.4,1.5 	"/>
	<path class="st0" d="M13.8,36h4.4V10.4h-3.1l-6.9,2.2l0.9,3.6l4.6-1.3L13.8,36L13.8,36z M34.8,36.4c6.7,0,11.1-5.9,11.1-13.1v-0.1
		c0-7.2-4.4-13-11-13c-6.7,0-11.1,5.9-11.1,13.1v0.1C23.8,30.6,28.1,36.4,34.8,36.4L34.8,36.4z M34.9,32.4c-4,0-6.5-4.1-6.5-9.1
		v-0.1c0-5,2.5-9,6.4-9s6.5,4.1,6.5,9.1v0.1C41.3,28.3,38.8,32.4,34.9,32.4L34.9,32.4z M61.1,36.4c6.7,0,11.1-5.9,11.1-13.1v-0.1
		c0-7.2-4.4-13-11-13c-6.7,0-11.1,5.9-11.1,13.1v0.1C50,30.6,54.4,36.4,61.1,36.4L61.1,36.4z M61.1,32.4c-4,0-6.5-4.1-6.5-9.1v-0.1
		c0-5,2.5-9,6.4-9s6.5,4.1,6.5,9.1v0.1C67.5,28.3,65.1,32.4,61.1,32.4z"/>
	<path class="st0" d="M19.2,49.8h1.1V48l0.9-1l2.1,2.7h1.3L22,46.2l2.5-2.6h-1.3l-2.9,3.1v-3h-1.1V49.8L19.2,49.8z M25.5,49.8H30v-1
		h-3.5v-1.6h3v-1h-3v-1.5h3.4v-1h-4.4V49.8L25.5,49.8z M31.3,49.8h4.3v-1h-3.2v-5.1h-1.1V49.8L31.3,49.8z M36.7,49.8H41v-1h-3.2
		v-5.1h-1.1V49.8L36.7,49.8z M44.6,49.9c1.9,0,3.2-1.4,3.2-3.1l0,0c0-1.7-1.3-3.1-3.2-3.1s-3.2,1.4-3.2,3.1l0,0
		C41.4,48.5,42.7,49.9,44.6,49.9L44.6,49.9z M44.6,48.9c-1.2,0-2.1-1-2.1-2.2l0,0c0-1.2,0.8-2.1,2-2.1s2.1,1,2.1,2.2l0,0
		C46.7,48,45.8,48.9,44.6,48.9L44.6,48.9z M51.9,49.9c1.1,0,1.9-0.4,2.5-0.9v-2.6h-2.6v0.9h1.6v1.1c-0.4,0.3-0.9,0.5-1.5,0.5
		c-1.2,0-2.1-0.9-2.1-2.2l0,0c0-1.2,0.9-2.1,2-2.1c0.8,0,1.2,0.3,1.7,0.7l0.7-0.8c-0.6-0.5-1.3-0.8-2.3-0.8c-1.8,0-3.1,1.4-3.1,3.1
		l0,0C48.8,48.6,50,49.9,51.9,49.9L51.9,49.9z M58.8,49.9c1.1,0,1.9-0.4,2.5-0.9v-2.6h-2.6v0.9h1.6v1.1c-0.4,0.3-0.9,0.5-1.5,0.5
		c-1.2,0-2.1-0.9-2.1-2.2l0,0c0-1.2,0.9-2.1,2-2.1c0.8,0,1.2,0.3,1.7,0.7l0.7-0.8c-0.6-0.5-1.3-0.8-2.3-0.8c-1.8,0-3.1,1.4-3.1,3.1
		l0,0C55.6,48.6,56.9,49.9,58.8,49.9z"/>
</g>
</svg>
